<svg id="Layer_1" enable-background="new 0 0 512.284 512.284" height="512" viewBox="0 0 512.284 512.284" width="512" xmlns="http://www.w3.org/2000/svg" xmlns:xlink="http://www.w3.org/1999/xlink"><linearGradient id="SVGID_1_" gradientUnits="userSpaceOnUse" x1="256.142" x2="256.142" y1="0" y2="512.284"><stop offset="0" stop-color="#2af598"/><stop offset="1" stop-color="#009efd"/></linearGradient><path d="m335.278 418.063-23.278 25.204c3.336 3.336 5.203 7.703 5.256 12.296.051 4.447-1.632 8.607-4.739 11.714-6.629 6.63-17.548 6.494-24.391-.349l-2.843-2.823c8.169-20.828 3.861-45.459-12.943-62.263-7.523-7.523-16.69-12.789-26.624-15.431 2.466-17.181-2.895-35.28-16.085-48.47-9.884-9.884-22.525-15.36-35.47-16.452-.976-12.869-6.476-25.494-16.53-35.548-9.942-9.941-22.673-15.421-35.697-16.468-1.047-13.025-6.527-25.756-16.469-35.698-22.178-22.178-58.237-22.224-80.473-.138l-27.949 26.983-.251.247c-22.225 22.224-22.225 58.386 0 80.61 8.497 8.497 19.033 13.734 30.047 15.734-.515 15.237 5.016 30.643 16.622 42.249 10.352 10.352 24.166 16.012 39.012 16.012.283 0 .567-.004.85-.008 1.615 11.888 6.959 23.336 16.052 32.429 10.689 10.689 24.942 16.563 40.17 16.563.111 0 .225 0 .336-.001 1.122-.006 2.236-.054 3.347-.124 2.116 11.644 7.672 22.355 16.17 30.853 10.925 10.925 25.49 16.942 41.013 16.942 15.147 0 29.373-5.743 40.205-16.173 11.156 10.781 25.594 16.191 40.006 16.19 14.579 0 29.122-5.522 40.179-16.58 8.848-8.849 14.37-20.107 15.97-32.317 1.871-12.103-.272-23.96-.272-23.96zm-290.017-104.845c-6.733-6.677-6.675-17.581.131-24.185l27.893-27.07c6.531-6.296 16.879-6.274 23.384.049 6.765 6.576 6.794 17.43.065 24.043l-27.664 27.212c-6.612 6.503-17.224 6.482-23.809-.049zm46.676 57.499c-6.575-6.454-6.627-17.031-.114-23.549l32.615-32.638c6.421-6.403 16.786-6.488 23.31-.19 6.72 6.487 6.787 17.233.148 23.804l-32.654 32.493c-6.435 6.404-16.825 6.44-23.305.08zm56.131 48.392c-6.687-6.671-6.654-17.514.073-24.144l29.089-28.788c6.643-6.574 17.346-6.553 23.963.047 6.677 6.661 6.656 17.484-.048 24.118l-29.141 28.839c-6.646 6.55-17.33 6.518-23.936-.072zm96.246 36.423-10.953 11.042c-7.085 7.142-18.624 7.166-25.739.056-7.098-7.094-7.1-18.599-.004-25.695l10.941-10.941c7.234-7.234 19.017-7.056 26.029.393 6.678 7.093 6.557 18.197-.274 25.145zm190.039-49.463c5.217-2.648 10.113-6.138 14.469-10.494 11.606-11.606 17.137-27.012 16.622-42.249 12.755-2.316 24.87-8.973 33.918-20.008 18.629-22.718 16.416-56.049-4.358-76.824l-.079-.079-126.283-107.527v-32.746h-74.466l-59.897 60.225c-7.984 8.028-21.009 7.917-28.855-.246-7.501-7.803-7.509-20.134-.02-27.947l51.936-54.184.095-.101c32.014-34.168 77.23-53.889 124.053-53.889h130.654v-39.875h-130.654c-46.63 0-91.963 15.741-128.508 43.955-36.917-28.895-82.364-43.938-129.792-43.938h-38.046l40.005 40.005c35.578.405 69.7 11.115 98.123 31.627l-45.123 47.494c-5.226 5.276-9.394 11.483-12.376 18.22l-137.487-137.488-28.284 28.284 484 484 28.284-28.284zm-13.814-38.778c-6.628 6.629-18.911 8.337-25.539 1.709l-150.007-152.291c6.494-2.949 12.48-7.06 17.674-12.255l48.123-48.312h4.672l152.195 129.592c6.174 6.659 6.024 17.1-.451 23.574-3.182 3.182-7.45 4.934-12.02 4.934s-8.839-1.752-12.022-4.935l-4.104-4.104-28.282 28.286 9.76 9.76c6.629 6.629 6.629 17.414.001 24.042z" fill="url(#SVGID_1_)"/></svg>