<svg id="Layer_1" enable-background="new 0 0 512 512" height="512" viewBox="0 0 512 512" width="512" xmlns="http://www.w3.org/2000/svg" xmlns:xlink="http://www.w3.org/1999/xlink"><linearGradient id="SVGID_1_" gradientUnits="userSpaceOnUse" x1="256" x2="256" y1="0" y2="512"><stop offset="0" stop-color="#2af598"/><stop offset="1" stop-color="#009efd"/></linearGradient><path d="m278.434 493.935c-69.229-1.751-108.396-43.126-139.995-76.517-24.564-25.958-40.716-41.941-60.987-42.176-1.549.146-11.521 1.289-20.753 6.969-10.71 6.589-15.699 16.372-15.699 30.789v99h-41v-89.253c0-81.977 26.011-112.755 50.392-135.17 28.176-25.904 61.966-31.577 72.608-31.577 28.533 0 46.019 8.76 60.068 15.799 11.82 5.922 20.36 10.201 34.932 10.201 3.979 0 4.987-1.285 5.53-1.976 1.05-1.337 3.491-5.575 3.491-16.024l-.021-112.996c0-5.51-.548-15.152-4.217-17.861-1.171-.864-10.04-9.607-12.537-12.295-31.563-33.97-48.246-75.758-48.246-120.848h40c0 35.307 12.633 66.805 37.549 93.62 3.039 3.271 7.184 5.16 11.67 5.32 4.518.16 8.824-1.444 12.123-4.522 23.179-21.625 59.539-50.369 107.538-50.418 5.008-.051 51.448.563 90.046 38.216 33.89 33.06 51.074 83.455 51.074 149.784-.006 1.368-.155 17.913-3.808 42.103-8.097-3.28-16.933-5.103-26.192-5.103-4.708 0-9.306.474-13.755 1.365 3.502-22.214 3.745-37.562 3.755-38.438-.011-54.729-12.961-95.292-38.49-120.572-27.233-26.967-59.782-27.328-62.074-27.359l-.335.013-.101-.009c-33.932 0-62.12 22.638-80.371 39.666-7.049 6.576-15.458 11.152-24.543 13.49.577 4.148.914 8.737.914 13.844l.021 112.996c0 16.861-4.047 30.563-12.03 40.729-8.746 11.14-21.883 17.275-36.991 17.275-24.031 0-39.341-7.67-52.849-14.438-12.383-6.204-23.078-11.562-42.151-11.562-.167.005-24.577 1.754-45.536 21.024-5.981 5.499-12.798 11.769-18.963 21.296 8.526-2.388 15.489-3.08 18.499-3.08 38.743 0 65.051 27.8 90.493 54.685 21.61 22.836 43.761 46.224 75.211 57.369 4.531 20.244 17.846 37.2 35.73 46.641zm194.216-126.429-17.328 9.223c.39 2.759.605 5.573.605 8.437 0 3.187-.255 6.314-.736 9.368l17.076 9.089c3.053-1.047 6.325-1.623 9.733-1.623 16.569 0 30 13.431 30 30s-13.431 30-30 30c-14.324 0-26.295-10.042-29.278-23.467l-16.619-8.845c-5.81 5.248-12.651 9.37-20.176 12.039v17.856c6.178 5.495 10.073 13.499 10.073 22.417 0 16.569-13.431 30-30 30s-30-13.431-30-30c0-8.849 3.833-16.801 9.928-22.292v-17.981c-7.304-2.59-13.957-6.557-19.655-11.588l-16.033 8.561c-3.045 13.341-14.976 23.3-29.24 23.3-16.569 0-30-13.431-30-30s13.431-30 30-30c3.471 0 6.801.596 9.901 1.68l15.882-8.48c-.552-3.265-.855-6.614-.855-10.033 0-3.1.236-6.146.692-9.12l-16.1-8.597c-2.993 1-6.191 1.55-9.52 1.55-16.569 0-30-13.431-30-30s13.431-30 30-30c14.4 0 26.425 10.148 29.327 23.68l15.234 8.135c5.851-5.33 12.761-9.511 20.367-12.208v-18.314c-6.095-5.492-9.928-13.444-9.928-22.293 0-16.569 13.431-30 30-30s30 13.431 30 30c0 8.918-3.895 16.922-10.072 22.418v18.189c7.823 2.775 14.902 7.127 20.857 12.676l15.849-8.436c2.839-13.617 14.907-23.847 29.366-23.847 16.569 0 30 13.431 30 30s-13.431 30-30 30c-3.266 0-6.406-.529-9.35-1.494zm-56.722 17.661c0-11.028-8.972-20-20-20s-20 8.972-20 20 8.972 20 20 20 20-8.973 20-20z" fill="url(#SVGID_1_)"/></svg>