<svg id="Layer_1" enable-background="new 0 0 512 512" height="512" viewBox="0 0 512 512" width="512" xmlns="http://www.w3.org/2000/svg" xmlns:xlink="http://www.w3.org/1999/xlink"><linearGradient id="SVGID_1_" gradientUnits="userSpaceOnUse" x1="256" x2="256" y1=".459" y2="511.541"><stop offset="0" stop-color="#2af598"/><stop offset="1" stop-color="#009efd"/></linearGradient><path d="m369.299 174.97-43.337-43.512 28.144-27.887 41.692 42.051 28.405-28.163-116-117-28.405 28.163 46.146 46.544-28.209 27.952-45.663-45.847-185.515 184.384 12.941 76.745-79.498 74.141h56l48.49-43.421 79.713 9.817zm-250.556 135.603-9.299-55.146 26.276-26.116 26.212 25.944 28.139-28.429-25.979-25.714 28.18-28.008 25.41 25.151 28.139-28.429-25.177-24.921 31.286-31.096 60.773 61.017-142.907 142.035zm363.257 90.968c-3.337 0-6.543.553-9.542 1.559l-17.267-9.191c.481-3.054.736-6.181.736-9.368 0-2.865-.215-5.679-.605-8.438l17.136-9.121c2.999 1.006 6.205 1.559 9.542 1.559 16.569 0 30-13.431 30-30s-13.431-30-30-30c-14.392 0-26.41 10.136-29.322 23.657l-15.893 8.459c-5.956-5.549-13.034-9.901-20.857-12.676v-18.023c6.177-5.495 10.072-13.5 10.072-22.418 0-16.569-13.431-30-30-30s-30 13.431-30 30c0 8.849 3.833 16.801 9.928 22.292v18.148c-7.606 2.698-14.516 6.878-20.366 12.208l-15.278-8.158c-2.974-13.437-14.951-23.49-29.283-23.49-16.569 0-30 13.431-30 30s13.431 30 30 30c3.4 0 6.664-.574 9.71-1.616l15.909 8.495c-.456 2.975-.692 6.021-.692 9.121 0 3.42.303 6.768.855 10.033l-16.073 8.582c-3.047-1.042-6.311-1.616-9.71-1.616-16.569 0-30 13.431-30 30s13.431 30 30 30c14.332 0 26.309-10.053 29.283-23.49l15.989-8.538c5.698 5.03 12.351 8.997 19.655 11.588v18.148c-6.094 5.491-9.928 13.443-9.928 22.292 0 16.569 13.431 30 30 30s30-13.431 30-30c0-8.918-3.895-16.922-10.072-22.418v-18.021c7.524-2.669 14.365-6.791 20.176-12.039l16.574 8.822c2.912 13.521 14.93 23.657 29.322 23.657 16.569 0 30-13.431 30-30s-13.43-29.999-29.999-29.999zm-86.072 3c-11.028 0-20-8.972-20-20s8.972-20 20-20 20 8.972 20 20-8.972 20-20 20z" fill="url(#SVGID_1_)"/></svg>