<svg id="Layer_1" enable-background="new 0 0 512.206 512.206" height="512" viewBox="0 0 512.206 512.206" width="512" xmlns="http://www.w3.org/2000/svg" xmlns:xlink="http://www.w3.org/1999/xlink"><linearGradient id="SVGID_1_" gradientUnits="userSpaceOnUse" x1="256.103" x2="256.103" y1="0" y2="512.206"><stop offset="0" stop-color="#2af598"/><stop offset="1" stop-color="#009efd"/></linearGradient><path d="m467.068 136.206h-75.9c-19.065-81-56.167-136-56.167-136h-49.839c26.941 31 48.043 84.321 50.65 91.312 11.563 30.996 25.116 78.308 27.812 134.688h-215.828c-1.628-50.439-10.608-110.817-46.853-186h52.336c3.028-5.116 15.823-25 27.764-40h-146.795s41.855 67 60.464 136h-49.574l-45.035 174.12v141.88c0 33.084 26.916 60 60 60h392c33.084 0 60-26.916 60-60v-141.88zm-392 40h28.136c3.914 25.108 4.899 48.141 4.899 70v20h296v-20c0-24.797-1.984-48.221-5.238-70h38.273l34.965 139.88v1.12h-432v-1.12zm377.035 296h-392c-11.028 0-20-8.972-20-20v-95h432v95c0 11.028-8.972 20-20 20zm-219-311c33.084 0 60-26.916 60-60 0-8.565-2.431-23.534-23.45-54.513-10.439-15.386-36.55-46.693-36.55-46.693s-26.111 31.307-36.55 46.693c-21.02 30.979-23.45 45.948-23.45 54.513 0 33.084 26.916 60 60 60zm-3.347-92.207c1.119-1.647 2.24-3.261 3.347-4.824 1.106 1.563 2.228 3.177 3.347 4.824 15.971 23.506 16.636 31.931 16.653 32.229-.012 11.018-8.979 19.978-20 19.978-11.028 0-20-8.972-20-19.97.002-.081.468-8.414 16.653-32.237z" fill="url(#SVGID_1_)"/></svg>