<svg id="Layer_1" enable-background="new 0 0 512.285 512.285" height="512" viewBox="0 0 512.285 512.285" width="512" xmlns="http://www.w3.org/2000/svg" xmlns:xlink="http://www.w3.org/1999/xlink"><linearGradient id="SVGID_1_" gradientUnits="userSpaceOnUse" x1="256.143" x2="256.143" y1="0" y2="512.285"><stop offset="0" stop-color="#2af598"/><stop offset="1" stop-color="#009efd"/></linearGradient><path d="m357.143 441.569 70.573 70.573h-350.573v-40h40v-270.573l40 40v230.573h200zm155.142 42.431-28.285 28.285-484-484 28.285-28.285 117.02 117.02c13.41-17.851 31.075-32.54 51.837-42.394v-14.483c0-33.084 26.916-60 60-60s60 26.916 60 60v14.484c48.38 22.961 80 72.137 80 126.516v167.715zm-338.317-338.316 183.174 183.174v-127.715c0-42.312-26.791-80.21-66.665-94.306l-13.335-4.713v-41.981c0-11.028-8.972-20-20-20s-20 8.972-20 20v41.981l-13.335 4.713c-20.842 7.368-38.106 21.24-49.839 38.847z" fill="url(#SVGID_1_)"/></svg>