<svg id="Layer_1" enable-background="new 0 0 512.316 512.316" height="512" viewBox="0 0 512.316 512.316" width="512" xmlns="http://www.w3.org/2000/svg" xmlns:xlink="http://www.w3.org/1999/xlink"><linearGradient id="SVGID_1_" gradientUnits="userSpaceOnUse" x1="256.158" x2="256.158" y1="35.658" y2="476.658"><stop offset="0" stop-color="#2af598"/><stop offset="1" stop-color="#009efd"/></linearGradient><path d="m256.158 172.658c21.539 0 39 17.461 39 39s-17.461 39-39 39-39-17.461-39-39 17.461-39 39-39zm0 177c-67.677 0-137.481-46.095-207.484-136.999 70.006-90.908 139.808-137.001 207.484-137.001 67.677 0 137.48 46.094 207.484 137 7.969 10.431 16.982 23.265 23.497 32.727.42.215.837.428 1.252.639 6.767-9.366 23.925-33.368 23.925-33.368s-13.234-19.518-15.965-23.08c-12.747-16.628-42.6-55.569-83.757-89.633-51.538-42.657-104.171-64.286-156.437-64.286s-104.897 21.63-156.435 64.287c-41.156 34.063-71.01 73.004-83.758 89.634-2.73 3.561-15.964 23.08-15.964 23.08s13.233 19.52 15.965 23.083c12.747 16.628 42.6 55.569 83.757 89.633 46.749 38.692 94.398 60.082 141.858 63.724 1.604-14.856 7.86-28.339 17.297-38.939-.158-.177-.306-.364-.462-.543-.752.011-1.505.042-2.257.042zm216.459-17.558-17.136 9.121c.39 2.759.605 5.573.605 8.438 0 3.187-.255 6.314-.736 9.368l17.268 9.191c2.998-1.005 6.204-1.559 9.541-1.559 16.568 0 30 13.431 30 30s-13.432 30-30 30c-14.392 0-26.41-10.136-29.322-23.657l-16.575-8.822c-5.81 5.248-12.651 9.37-20.175 12.039v18.023c6.177 5.495 10.072 13.5 10.072 22.418 0 16.569-13.432 30-30 30s-30-13.431-30-30c0-8.849 3.833-16.801 9.928-22.292v-18.148c-7.304-2.59-13.957-6.557-19.655-11.588l-15.99 8.538c-2.974 13.437-14.951 23.49-29.283 23.49-16.568 0-30-13.431-30-30s13.432-30 30-30c3.399 0 6.664.574 9.71 1.616l16.073-8.583c-.553-3.265-.855-6.613-.855-10.033 0-3.1.236-6.146.692-9.12l-15.91-8.495c-3.046 1.042-6.311 1.616-9.71 1.616-16.568 0-30-13.431-30-30s13.432-30 30-30c14.332 0 26.309 10.053 29.283 23.49l15.278 8.158c5.851-5.33 12.76-9.51 20.366-12.208v-18.148c-6.094-5.491-9.928-13.443-9.928-22.292 0-16.569 13.432-30 30-30s30 13.431 30 30c0 8.918-3.895 16.922-10.072 22.418v18.023c7.823 2.775 14.901 7.127 20.857 12.676l15.894-8.46c2.912-13.521 14.93-23.657 29.322-23.657 16.568 0 30 13.431 30 30s-13.432 30-30 30c-3.338-.003-6.544-.556-9.542-1.561zm-56.531 17.558c0-11.028-8.972-20-20-20s-20 8.972-20 20 8.972 20 20 20 20-8.972 20-20zm-48.926-162.88c-11.756-50.428-57.046-88.12-111.002-88.12-62.859 0-114 51.14-114 114 0 59.044 45.121 107.744 102.691 113.44-2.392-7.047-3.691-14.594-3.691-22.44 0-6.258.838-12.321 2.385-18.098-34.813-6.007-61.385-36.4-61.385-72.902 0-40.804 33.196-74 74-74s74 33.196 74 74c0 5.201-.555 10.272-1.585 15.171 6.762-18.347 20.799-33.191 38.587-41.051z" fill="url(#SVGID_1_)"/></svg>