<svg id="Layer_1" enable-background="new 0 0 512.145 512.145" height="512" viewBox="0 0 512.145 512.145" width="512" xmlns="http://www.w3.org/2000/svg" xmlns:xlink="http://www.w3.org/1999/xlink"><linearGradient id="SVGID_1_" gradientUnits="userSpaceOnUse" x1="256.072" x2="256.072" y1=".001" y2="512.143"><stop offset="0" stop-color="#2af598"/><stop offset="1" stop-color="#009efd"/></linearGradient><path d="m492.002 135.067v134.66c-.607-.087-1.219-.159-1.831-.232-9.935-17.063-22.907-32.146-38.169-44.512v-87.982c0-15.537-12.987-19.148-18.571-19.148-9.682 0-16.429 9.788-16.429 18.571v66.912c-12.562-5.699-25.981-9.824-40-12.148v-97.764c0-9.607-7.626-17.423-16.999-17.423-9.371 0-16.995 7.811-17 17.413v95.767c-13.856.637-27.262 3.024-40 6.952v-102.709c0-.006 0-.013 0-.019v-36.404c0-9.278-7.47-16.843-16.711-16.998-9.508-.159-17.289 7.939-17.289 17.448v153.673c-15.056 8.838-28.561 20.042-40 33.102v-156.225c0-9.278-7.471-16.844-16.712-16.998-9.507-.158-17.288 7.94-17.288 17.449v200.549c0 30.47-23 66-58 66-8 0-16.565-3.839-22.704-9.322l-39.62-35.891c-8.376-7.587-21.339-6.859-28.812 1.619-7.189 8.155-6.663 20.529 1.191 28.045l100.709 96.374c1.016.939 39.571 35.175 85.235 35.175h10.1c28.562 25.484 66.201 41 107.4 41h-117.5c-62.247 0-110.713-45.214-112.746-47.137l-.097-.092-100.214-96.1c-11.81-10.586-18.846-25.114-19.827-40.961-.991-15.996 4.307-31.421 14.917-43.432 21.902-24.795 59.896-27.148 84.689-5.246l.082.072 39.358 35.152c9.867-2.171 15.838-15.601 15.838-25.255v-200.104c0-30.656 23.852-56.502 54.479-57.841 8.468-.37 16.545 1.137 23.877 4.111 8.586-20.625 28.946-35.166 52.645-35.166 25.346 0 46.871 16.634 54.259 39.555 6.154-2.296 12.804-3.555 19.741-3.555 27.15 0 49.913 19.228 55.612 44.874 5.665-1.979 11.655-3.022 17.816-3.022 33.939-.001 58.571 24.061 58.571 57.213zm-176 212.934c-11.046 0-20 8.954-20 20s8.954 20 20 20 20-8.954 20-20-8.954-20-20-20zm196.143 135.858-28.284 28.284-62.791-62.791c-19.906 14.251-44.273 22.649-70.567 22.649-66.995 0-121.5-54.505-121.5-121.5s54.505-121.5 121.5-121.5 121.5 54.505 121.5 121.5c0 26.293-8.398 50.661-22.649 70.567zm-80.143-133.358c0-44.939-36.561-81.5-81.5-81.5s-81.5 36.561-81.5 81.5 36.561 81.5 81.5 81.5 81.5-36.56 81.5-81.5zm-57 11.5c0 11.046 8.954 20 20 20s20-8.954 20-20-8.954-20-20-20-20 8.955-20 20zm-34-69c-11.046 0-20 8.954-20 20s8.954 20 20 20 20-8.954 20-20c0-11.045-8.954-20-20-20z" fill="url(#SVGID_1_)"/></svg>