<svg id="Layer_1" enable-background="new 0 0 512.188 512.188" height="512" viewBox="0 0 512.188 512.188" width="512" xmlns="http://www.w3.org/2000/svg" xmlns:xlink="http://www.w3.org/1999/xlink"><linearGradient id="SVGID_1_" gradientUnits="userSpaceOnUse" x1="256.094" x2="256.094" y1="0" y2="512.189"><stop offset="0" stop-color="#2af598"/><stop offset="1" stop-color="#009efd"/></linearGradient><path d="m301.392 0c-116.07 0-210.5 94.43-210.5 210.5 0 51.208 18.388 98.196 48.897 134.729l-139.493 138.583 28.191 28.377 139.718-138.806c36.309 29.743 82.698 47.617 133.187 47.617 116.07 0 210.5-94.43 210.5-210.5s-94.43-210.5-210.5-210.5zm0 381c-94.014 0-170.5-76.486-170.5-170.5s76.486-170.5 170.5-170.5 170.5 76.486 170.5 170.5-76.486 170.5-170.5 170.5zm86.5-187c16.569 0 30-13.431 30-30s-13.431-30-30-30c-14.459 0-26.527 10.23-29.366 23.847l-15.849 8.436c-5.956-5.549-13.034-9.901-20.857-12.676v-18.189c6.177-5.495 10.072-13.5 10.072-22.418 0-16.569-13.431-30-30-30s-30 13.431-30 30c0 8.849 3.833 16.801 9.928 22.292v18.314c-7.606 2.698-14.516 6.878-20.367 12.208l-15.234-8.135c-2.903-13.533-14.927-23.68-29.327-23.68-16.569 0-30 13.431-30 30s13.431 30 30 30c3.329 0 6.527-.55 9.52-1.551l16.1 8.597c-.456 2.975-.692 6.02-.692 9.12 0 3.42.303 6.768.855 10.033l-15.882 8.48c-3.101-1.084-6.431-1.68-9.901-1.68-16.569 0-30 13.431-30 30s13.431 30 30 30c14.264 0 26.195-9.959 29.24-23.3l16.033-8.561c5.698 5.03 12.351 8.997 19.655 11.588v17.981c-6.094 5.491-9.928 13.443-9.928 22.292 0 16.569 13.431 30 30 30s30-13.431 30-30c0-8.918-3.895-16.922-10.072-22.418v-17.856c7.524-2.669 14.365-6.791 20.176-12.039l16.619 8.845c2.982 13.428 14.953 23.47 29.277 23.47 16.569 0 30-13.431 30-30s-13.431-30-30-30c-3.408 0-6.68.576-9.733 1.623l-17.076-9.089c.481-3.054.736-6.181.736-9.368 0-2.864-.215-5.679-.605-8.437l17.328-9.223c2.944.965 6.084 1.494 9.35 1.494zm-86.072 36.167c-11.028 0-20-8.972-20-20s8.972-20 20-20 20 8.972 20 20-8.972 20-20 20z" fill="url(#SVGID_1_)"/></svg>