<svg id="Layer_1" enable-background="new 0 0 512 512" height="512" viewBox="0 0 512 512" width="512" xmlns="http://www.w3.org/2000/svg" xmlns:xlink="http://www.w3.org/1999/xlink"><linearGradient id="SVGID_1_" gradientUnits="userSpaceOnUse" x1="256" x2="256" y1="0" y2="512"><stop offset="0" stop-color="#2af598"/><stop offset="1" stop-color="#009efd"/></linearGradient><path d="m179 378h-40v-40h40v-40h40v40h40v40h-40v40h-40zm291-298c-11.046 0-20 8.954-20 20s8.954 20 20 20 20-8.954 20-20-8.954-20-20-20zm0-40c11.046 0 20-8.954 20-20s-8.954-20-20-20-20 8.954-20 20 8.954 20 20 20zm-50 0c-11.046 0-20 8.954-20 20s8.954 20 20 20 20-8.954 20-20-8.954-20-20-20zm-50 40c-11.046 0-20 8.954-20 20s8.954 20 20 20 20-8.954 20-20-8.954-20-20-20zm100 80c-11.046 0-20 8.954-20 20s8.954 20 20 20 20-8.954 20-20-8.954-20-20-20zm-50-40c-11.046 0-20 8.954-20 20s8.954 20 20 20 20-8.954 20-20-8.954-20-20-20zm-45 101.631v230.369c0 33.084-26.916 60-60 60h-233c-33.084 0-60-26.916-60-60v-230.557s53-54.443 118-81.534v-99.909h120v40h50v40h-50v20.264c72 31.736 115 81.367 115 81.367zm-195-91.43c6.36-.764 12.634-1.173 19-1.201 6.766 0 14.286.426 21 1.262v-50.262h-40zm-83.888 79.799h205.945c-36.23-27.798-70.212-41-103.057-41-32.678.14-65.902 13.341-102.888 41zm238.888 40h-273v202c0 11.028 8.972 20 20 20h233c11.028 0 20-8.972 20-20z" fill="url(#SVGID_1_)"/></svg>