<svg id="Layer_1" enable-background="new 0 0 512 512" height="512" viewBox="0 0 512 512" width="512" xmlns="http://www.w3.org/2000/svg" xmlns:xlink="http://www.w3.org/1999/xlink"><linearGradient id="SVGID_1_" gradientUnits="userSpaceOnUse" x1="256" x2="256" y1="0" y2="512"><stop offset="0" stop-color="#2af598"/><stop offset="1" stop-color="#009efd"/></linearGradient><path d="m267.696 185c-44.836 0-81.314 35.888-81.314 80s36.478 80 81.314 80c44.837 0 81.314-35.888 81.314-80s-36.478-80-81.314-80zm0 120c-22.781 0-41.314-17.944-41.314-40s18.533-40 41.314-40 41.314 17.944 41.314 40-18.534 40-41.314 40zm244.294-217.638c0-31.963-6.445-54.614-19.156-67.324-16.564-16.561-45.757-20.038-67.33-20.038-25.874 0-56.175 8.709-85.479 17.131-22.013 6.327-44.774 12.869-58.015 12.869v.1c-32.725 1.227-65.436 10.445-95.101 28.034-8.956 5.31-13.729 7.847-16.164 9.043-14.177-.671-52.2-.13-74.784 22.344-22.747 22.637-24.393 61.908-24.238 75.454-1.483 3.264-5.467 11.209-16.114 30.032-15.646 27.659-24.245 57.921-25.472 88.993h-.127c0 13.188-6.527 35.469-12.84 57.016-8.437 28.796-17.16 58.572-17.16 84.499 0 21.572 3.477 50.765 20.039 67.331 12.709 12.709 35.36 19.154 67.323 19.154 28.713 0 62.286-7.1 91.906-13.363 20.955-4.431 40.748-8.617 51.706-8.617v-.046c33.797-.348 67.743-9.253 98.395-27.198 15.348-8.986 66.829-39.702 84.916-57.7 16.185-16.106 40.028-59.071 52.8-83.249 15.173-28.722 22.927-60.052 22.94-91.988.262-11.152 4.306-30.305 8.591-50.571 6.264-29.62 13.364-63.193 13.364-91.906zm-47.438-39.037c2.573 2.572 7.438 14.042 7.438 39.038 0 14.464-2.315 31.317-5.41 48.391-9.249-17.287-21.104-33.228-35.349-47.395-16.761-16.669-35.892-29.854-56.406-39.453 18.602-4.987 36.449-8.906 50.679-8.906 24.252 0 35.956 5.233 39.048 8.325zm-416.217 416.237c-3.092-3.092-8.325-14.796-8.325-39.047 0-14.037 3.824-31.358 8.722-49.379 9.674 20.555 22.938 39.381 39.469 55.822l.089.089c14.141 14.064 29.996 25.63 46.95 34.638-16.895 3.048-33.552 5.315-47.868 5.315-24.995 0-36.465-4.866-39.037-7.438zm337.744-87.839c-7.905 7.866-34.752 26.852-76.91 51.533-62.252 36.445-141.48 26.341-192.634-24.532l-.089-.089c-50.075-49.802-62.036-128.225-26.022-188.933 20.586-34.702 21.488-45.436 21.488-45.436s-.902-18.266 2.904-32.083l48.066 47.972 28.257-28.312-47.84-47.747c14.712-3.098 31.587-1.463 31.587-1.463s11.124-1.633 32.422-15.092c62.138-39.267 143.709-27.544 195.716 24.179 30.269 30.105 46.412 69.537 47.116 109.726-.078 1.555-.13 3.076-.13 4.529h.141c-.279 24.543-6.316 49.248-18.425 72.169-23.145 43.813-39.055 67.02-45.647 73.579z" fill="url(#SVGID_1_)"/></svg>