<svg id="Layer_1" enable-background="new 0 0 512 512" height="512" viewBox="0 0 512 512" width="512" xmlns="http://www.w3.org/2000/svg" xmlns:xlink="http://www.w3.org/1999/xlink"><linearGradient id="SVGID_1_" gradientUnits="userSpaceOnUse" x1="256" x2="256" y1="0" y2="512"><stop offset="0" stop-color="#2af598"/><stop offset="1" stop-color="#009efd"/></linearGradient><path d="m40 327h40v185h-40v-145h-40v-168c0-33.084 26.916-60 60-60h80c27.99 0 51.561 19.267 58.157 45.234-8.355-3.53-17.532-5.484-27.157-5.484-7.208 0-111 .25-111 .25-11.028 0-20 8.972-20 20zm312 185h40v-122.327c-10.509 10.739-24.433 18.114-40 20.351zm-232-123.376v123.376h40v-102.121c-15.662-2.484-29.602-10.185-40-21.255zm332-249.624h-80c-28.169 0-51.853 19.517-58.273 45.736 8.653-3.837 18.214-5.986 28.273-5.986l110 .25c11.028 0 20 8.972 20 20v128h-40v185h40v-145h40v-168c0-33.084-26.916-60-60-60zm-110 231c-14.392 0-26.41-10.136-29.322-23.657l-16.575-8.822c-5.81 5.248-12.651 9.37-20.175 12.039v18.023c6.177 5.495 10.072 13.499 10.072 22.417 0 16.569-13.432 30-30 30s-30-13.431-30-30c0-8.849 3.833-16.801 9.928-22.292v-18.148c-7.304-2.59-13.957-6.557-19.655-11.588l-15.99 8.538c-2.974 13.437-14.951 23.49-29.283 23.49-16.568 0-30-13.431-30-30s13.432-30 30-30c3.399 0 6.664.574 9.71 1.616l16.073-8.583c-.553-3.265-.855-6.613-.855-10.033 0-3.1.236-6.146.692-9.12l-15.91-8.495c-3.046 1.042-6.311 1.616-9.71 1.616-16.568 0-30-13.431-30-30s13.432-30 30-30c14.332 0 26.309 10.053 29.283 23.49l15.278 8.158c5.851-5.33 12.76-9.51 20.366-12.208v-18.148c-6.094-5.492-9.927-13.444-9.927-22.293 0-16.569 13.432-30 30-30s30 13.431 30 30c0 8.918-3.895 16.922-10.072 22.418v18.023c7.823 2.775 14.901 7.127 20.857 12.676l15.894-8.46c2.911-13.521 14.929-23.657 29.321-23.657 16.568 0 30 13.431 30 30s-13.432 30-30 30c-3.337 0-6.543-.553-9.541-1.559l-17.136 9.121c.39 2.759.605 5.573.605 8.438 0 3.187-.255 6.314-.736 9.368l17.268 9.191c2.998-1.005 6.204-1.559 9.541-1.559 16.568 0 30 13.431 30 30s-13.433 30-30.001 30zm-66.072-77c0-11.028-8.972-20-20-20s-20 8.972-20 20 8.972 20 20 20 20-8.972 20-20zm-235.928-233c0-33.084 26.916-60 60-60s60 26.916 60 60-26.916 60-60 60-60-26.916-60-60zm40 0c0 11.028 8.972 20 20 20s20-8.972 20-20-8.972-20-20-20-20 8.972-20 20zm272 0c0-33.084 26.916-60 60-60s60 26.916 60 60-26.916 60-60 60-60-26.916-60-60zm40 0c0 11.028 8.972 20 20 20s20-8.972 20-20-8.972-20-20-20-20 8.972-20 20z" fill="url(#SVGID_1_)"/></svg>