<svg id="Layer_1" enable-background="new 0 0 512 512" height="512" viewBox="0 0 512 512" width="512" xmlns="http://www.w3.org/2000/svg" xmlns:xlink="http://www.w3.org/1999/xlink"><linearGradient id="SVGID_1_" gradientUnits="userSpaceOnUse" x1="256" x2="256" y1="0" y2="512"><stop offset="0" stop-color="#2af598"/><stop offset="1" stop-color="#009efd"/></linearGradient><path d="m112 355c11.046 0 20 8.954 20 20s-8.954 20-20 20-20-8.954-20-20 8.954-20 20-20zm48 63c0 11.046 8.954 20 20 20s20-8.954 20-20-8.954-20-20-20-20 8.954-20 20zm112.223 4.191c-23.82 30.301-60.779 49.809-102.223 49.809-71.682 0-130-58.317-130-130 0-7.119.589-14.136 1.717-21h188.956c-.159-2.98-.245-5.98-.245-9 0-10.592 1.006-20.952 2.906-31h-178.068c16.401-30.78 44.909-54.617 80.056-64.318l14.678-4.052v-172.63h40v172.63l14.679 4.052c15.925 4.396 30.483 11.697 43.173 21.228 6.007-12.037 13.427-23.248 22.046-33.416-12.121-8.843-25.499-16.155-39.898-21.587v-142.907h30v-40h-180v40h30v142.906c-65.472 24.699-110 88.061-110 159.094 0 93.738 76.262 170 170 170 53.309 0 100.945-24.681 132.136-63.199-11.009-7.651-21.053-16.594-29.913-26.61zm239.777-63.191c0 16.569-13.432 30-30 30-14.392 0-26.41-10.136-29.322-23.657l-16.575-8.822c-5.81 5.248-12.651 9.37-20.175 12.039v18.023c6.177 5.495 10.072 13.499 10.072 22.417 0 16.569-13.432 30-30 30s-30-13.431-30-30c0-8.849 3.833-16.801 9.928-22.292v-18.148c-7.304-2.59-13.957-6.557-19.655-11.588l-15.99 8.538c-2.974 13.437-14.951 23.49-29.283 23.49-16.568 0-30-13.431-30-30s13.432-30 30-30c3.399 0 6.664.574 9.71 1.616l16.073-8.583c-.553-3.265-.855-6.613-.855-10.033 0-3.1.236-6.146.692-9.12l-15.91-8.495c-3.046 1.042-6.311 1.616-9.71 1.616-16.568 0-30-13.431-30-30s13.432-30 30-30c14.332 0 26.309 10.053 29.283 23.49l15.278 8.158c5.851-5.33 12.76-9.51 20.366-12.208v-18.148c-6.094-5.492-9.927-13.444-9.927-22.293 0-16.569 13.432-30 30-30s30 13.431 30 30c0 8.918-3.895 16.922-10.072 22.418v18.023c7.823 2.775 14.901 7.127 20.857 12.676l15.894-8.46c2.911-13.521 14.929-23.657 29.321-23.657 16.568 0 30 13.431 30 30s-13.432 30-30 30c-3.337 0-6.543-.553-9.541-1.559l-17.136 9.121c.39 2.759.605 5.573.605 8.438 0 3.187-.255 6.314-.736 9.368l17.268 9.191c2.998-1.006 6.204-1.559 9.541-1.559 16.567 0 29.999 13.431 29.999 30zm-96.072-47c0-11.028-8.972-20-20-20s-20 8.972-20 20 8.972 20 20 20 20-8.972 20-20z" fill="url(#SVGID_1_)"/></svg>