<svg id="Layer_1" enable-background="new 0 0 512.102 512.102" height="512" viewBox="0 0 512.102 512.102" width="512" xmlns="http://www.w3.org/2000/svg" xmlns:xlink="http://www.w3.org/1999/xlink"><linearGradient id="SVGID_1_" gradientUnits="userSpaceOnUse" x1="256.051" x2="256.051" y1="0" y2="512.102"><stop offset="0" stop-color="#2af598"/><stop offset="1" stop-color="#009efd"/></linearGradient><path d="m256.051 0c-113.037 0-205 91.963-205 205 0 57.07 32.719 124.575 97.249 200.639 46.811 55.178 92.958 94.059 94.9 95.687l12.851 10.776 12.851-10.776c1.941-1.628 48.089-40.509 94.9-95.687 64.53-76.063 97.249-143.568 97.249-200.639 0-113.037-91.963-205-205-205zm0 459.321c-40.862-37.088-165-157.729-165-254.321 0-90.981 74.019-165 165-165s165 74.019 165 165c0 96.593-124.141 217.235-165 254.321zm86-269.321c16.569 0 30-13.431 30-30s-13.431-30-30-30c-14.391 0-26.41 10.136-29.322 23.657l-15.893 8.459c-5.956-5.549-13.034-9.901-20.857-12.676v-18.023c6.177-5.495 10.072-13.5 10.072-22.417 0-16.569-13.431-30-30-30s-30 13.431-30 30c0 8.849 3.833 16.801 9.928 22.292v18.148c-7.606 2.698-14.516 6.878-20.366 12.208l-15.278-8.158c-2.975-13.437-14.952-23.49-29.284-23.49-16.569 0-30 13.431-30 30s13.431 30 30 30c3.4 0 6.664-.574 9.71-1.616l15.909 8.495c-.456 2.975-.692 6.021-.692 9.121 0 3.42.303 6.768.855 10.033l-16.073 8.582c-3.047-1.042-6.311-1.616-9.71-1.616-16.569 0-30 13.431-30 30s13.431 30 30 30c14.332 0 26.309-10.053 29.283-23.49l15.989-8.538c5.698 5.03 12.351 8.997 19.655 11.588v18.148c-6.094 5.491-9.928 13.443-9.928 22.292 0 16.569 13.431 30 30 30s30-13.431 30-30c0-8.918-3.895-16.922-10.072-22.417v-18.022c7.524-2.669 14.365-6.791 20.176-12.039l16.575 8.823c2.913 13.52 14.931 23.656 29.323 23.656 16.569 0 30-13.431 30-30s-13.431-30-30-30c-3.337 0-6.543.553-9.542 1.559l-17.267-9.191c.481-3.054.736-6.181.736-9.368 0-2.865-.215-5.679-.605-8.438l17.136-9.121c2.999 1.006 6.205 1.559 9.542 1.559zm-86.072 36c-11.028 0-20-8.972-20-20s8.972-20 20-20 20 8.972 20 20-8.973 20-20 20z" fill="url(#SVGID_1_)"/></svg>