<svg id="Layer_1" enable-background="new 0 0 512.845 512.845" height="512" viewBox="0 0 512.845 512.845" width="512" xmlns="http://www.w3.org/2000/svg" xmlns:xlink="http://www.w3.org/1999/xlink"><linearGradient id="SVGID_1_" gradientUnits="userSpaceOnUse" x1="256.422" x2="256.422" y1="0" y2="512.845"><stop offset="0" stop-color="#2af598"/><stop offset="1" stop-color="#009efd"/></linearGradient><path d="m451.922 327.845c-3.408 0-6.68.576-9.733 1.623l-17.076-9.089c.481-3.054.736-6.181.736-9.368 0-2.865-.215-5.679-.605-8.438l17.328-9.223c2.943.965 6.084 1.494 9.349 1.494 16.569 0 30-13.431 30-30s-13.431-30-30-30c-14.459 0-26.527 10.23-29.366 23.847l-15.85 8.436c-5.955-5.548-13.034-9.901-20.857-12.675v-18.19c6.177-5.495 10.072-13.5 10.072-22.417 0-16.569-13.431-30-30-30s-30 13.431-30 30c0 8.849 3.833 16.801 9.928 22.292v18.315c-7.606 2.698-14.516 6.878-20.366 12.208l-15.234-8.134c-2.902-13.533-14.927-23.681-29.327-23.681-16.569 0-30 13.431-30 30s13.431 30 30 30c3.329 0 6.527-.55 9.519-1.551l16.101 8.597c-.456 2.975-.692 6.021-.692 9.121 0 3.419.303 6.768.855 10.032l-15.882 8.481c-3.101-1.084-6.43-1.68-9.901-1.68-16.569 0-30 13.431-30 30s13.431 30 30 30c14.264 0 26.194-9.958 29.24-23.3l16.033-8.562c5.698 5.031 12.352 8.998 19.655 11.588v17.981c-6.094 5.491-9.928 13.443-9.928 22.292 0 16.569 13.431 30 30 30s30-13.431 30-30c0-8.918-3.895-16.922-10.072-22.417v-17.856c7.524-2.669 14.366-6.791 20.176-12.039l16.618 8.845c2.983 13.426 14.954 23.467 29.278 23.467 16.569 0 30-13.431 30-30s-13.43-29.999-29.999-29.999zm-86.072 3.167c-11.028 0-20-8.972-20-20s8.972-20 20-20 20 8.972 20 20-8.972 20-20 20zm-23.268 142.995c-32.554 24.382-72.95 38.838-116.66 38.838-107.523 0-195-87.477-195-195 0-24.539 9.693-54.949 29.632-92.969 14.957-28.521 35.704-61.178 61.663-97.066 43.847-60.618 86.97-109.061 88.785-111.093l14.92-16.717 14.92 16.716c1.814 2.033 44.938 50.476 88.785 111.093 4.867 6.729 9.552 13.344 14.049 19.84-13.027 4.378-24.352 12.485-32.7 23.055-4.339-6.276-8.854-12.669-13.567-19.188-27.404-37.906-55.082-71.551-71.486-90.893-16.404 19.342-44.083 52.987-71.486 90.893-53.854 74.495-83.514 133.564-83.514 166.328 0 85.467 69.533 155 155 155 30.533 0 59.029-8.878 83.051-24.183 8.275 11.562 19.975 20.51 33.608 25.346z" fill="url(#SVGID_1_)"/></svg>