<svg id="Layer_1" enable-background="new 0 0 512.643 512.643" height="512" viewBox="0 0 512.643 512.643" width="512" xmlns="http://www.w3.org/2000/svg" xmlns:xlink="http://www.w3.org/1999/xlink"><linearGradient id="SVGID_1_" gradientUnits="userSpaceOnUse" x1="256.321" x2="256.321" y1="0" y2="512.643"><stop offset="0" stop-color="#2af598"/><stop offset="1" stop-color="#009efd"/></linearGradient><path d="m282.641 364.32 28.933 28.932-61.875 95.446c-12.986 14.809-31.729 23.302-51.425 23.302h-75.307l73.129-186h-73.636l-71.207 58h-50.171l45.037-128-45.037-128h45.24l98 98h-36.089l-42.423-34.554 22.713 64.554-22.713 64.555 42.422-34.555h96.089l36.236 36.236-58.882 149.764h16.6c7.75 0 15.146-3.168 20.487-8.734zm229.823 120.037-28.285 28.285-484-484 28.285-28.284 144.834 144.834-64.125-145.192h77.102c19.695 0 38.438 8.493 51.424 23.302l116.673 162.698h87.966c38.589 0 69.983 31.394 69.983 69.983 0 38.623-31.395 70.017-69.983 70.017h-87.347l-.347.538zm-259.232-259.231 72.48 72.479 7.492-11.605h109.134c16.533 0 29.983-13.45 29.983-29.983 0-16.567-13.45-30.017-29.983-30.017h-108.515l-126.771-176.958c-5.363-5.757-12.886-9.042-20.778-9.042h-14.804z" fill="url(#SVGID_1_)"/></svg>