<svg id="Layer_1" enable-background="new 0 0 512 512" height="512" viewBox="0 0 512 512" width="512" xmlns="http://www.w3.org/2000/svg" xmlns:xlink="http://www.w3.org/1999/xlink"><linearGradient id="SVGID_1_" gradientUnits="userSpaceOnUse" x1="256" x2="256" y1="0" y2="512"><stop offset="0" stop-color="#2af598"/><stop offset="1" stop-color="#009efd"/></linearGradient><path d="m472 47c0-11.046 8.954-20 20-20s20 8.954 20 20-8.954 20-20 20-20-8.954-20-20zm-373-7c11.046 0 20-8.954 20-20s-8.954-20-20-20-20 8.954-20 20 8.954 20 20 20zm-59 81c11.046 0 20-8.954 20-20s-8.954-20-20-20-20 8.954-20 20 8.954 20 20 20zm429.765 36.102c.157-2.025.235-4.061.235-6.102 0-40.862-31.185-74.578-71.005-78.599-4.003-17.098-12.752-32.765-25.548-45.373-17.689-17.429-41.11-27.028-65.947-27.028-21.6 0-42.695 7.513-59.401 21.153-10.735 8.766-19.373 19.81-25.323 32.168-4.834-.879-9.766-1.321-14.776-1.321-45.215 0-82 36.785-82 82 0 .184.001.368.002.552-28.154 7.531-49.871 30.968-54.897 60.049 13.806 1.511 27.001 5.858 38.899 12.754.078-19.507 16.469-35.355 35.996-35.355 21 0 35 16.178 35 35h40c0-20.184-7.885-39.086-22.202-53.225-9.252-9.136-20.505-15.582-32.783-18.984-.005-.264-.015-.527-.015-.791 0-23.159 18.841-42 42-42 6.457 0 12.65 1.427 18.408 4.242l22.93 11.208 5.4-24.945c5.332-24.629 27.522-42.505 52.762-42.505 24.289 0 45.072 16.394 51.733 38.692-27.782 12.253-47.233 40.045-47.233 72.308h40c0-19.369 14-39 39-39 21.505 0 39 17.495 39 39 0 18-9.497 34.198-9.497 34.198l22.324 4.536c16.904 3.434 29.173 18.476 29.173 35.766 0 16.21-10.484 29.961-25.174 34.714 14.701 5.27 28.966 11.799 42.667 19.547 13.929-13.864 22.507-33.055 22.507-54.261 0-29.379-16.925-55.664-42.235-68.398zm-133.765 57.898c0-11.046-8.954-20-20-20s-20 8.954-20 20 8.954 20 20 20 20-8.954 20-20zm20.241 69.051-141.328.036c-21.368 0-39.971 12.033-49.409 29.675l-63.478-62.585c-11.439-11.226-26.564-17.32-42.591-17.175-16.026.151-31.035 6.534-42.259 17.973-11.225 11.438-17.325 26.563-17.173 42.588.15 16.026 6.532 31.034 17.971 42.26l148.437 145.67c19.387 19.028 45.024 29.507 72.19 29.507h273.399v-40h-273.399c-16.622 0-32.311-6.412-44.174-18.056l-147.164-144.385c-7.871-7.722-7.998-20.361-.284-28.24 7.736-7.901 20.419-8.016 28.297-.256 0 0 104.792 103.045 108.123 105.315 5.403 3.682 16.091 10.157 26.957 12.156 6.164 1.134 112.547 12.422 157.999 17.223l4.201-39.779c-58.345-6.162-147.323-15.674-155.096-16.81-17.46-4.168-18.547-15.188-18.547-19.081 0-8.822 7.178-16 16.008-16 0 0 140.021-.049 140.843-.038v-.001c40.516.49 79.348 13.213 112.3 36.793l43.936 31.44v-49.187l-20.659-14.783c-39.641-28.367-86.358-43.672-135.1-44.26z" fill="url(#SVGID_1_)"/></svg>