<svg id="Layer_1" enable-background="new 0 0 512 512" height="512" viewBox="0 0 512 512" width="512" xmlns="http://www.w3.org/2000/svg" xmlns:xlink="http://www.w3.org/1999/xlink"><linearGradient id="SVGID_1_" gradientUnits="userSpaceOnUse" x1="256" x2="256" y1="0" y2="512"><stop offset="0" stop-color="#2af598"/><stop offset="1" stop-color="#009efd"/></linearGradient><path d="m482 369c16.568 0 30-13.431 30-30s-13.432-30-30-30c-14.392 0-26.411 10.136-29.322 23.657l-15.893 8.459c-5.956-5.549-13.034-9.901-20.857-12.676v-18.023c6.177-5.495 10.072-13.499 10.072-22.417 0-16.569-13.432-30-30-30s-30 13.431-30 30c0 8.849 3.833 16.801 9.928 22.292v18.148c-7.606 2.698-14.516 6.878-20.366 12.208l-15.278-8.158c-2.975-13.437-14.952-23.49-29.284-23.49-16.568 0-30 13.431-30 30s13.432 30 30 30c3.399 0 6.664-.574 9.71-1.616l15.91 8.495c-.456 2.974-.692 6.02-.692 9.12 0 3.42.303 6.768.855 10.033l-16.073 8.583c-3.046-1.042-6.311-1.616-9.71-1.616-16.568 0-30 13.431-30 30s13.432 30 30 30c14.332 0 26.309-10.053 29.283-23.49l15.99-8.538c5.698 5.03 12.351 8.997 19.655 11.588v18.148c-6.095 5.492-9.928 13.444-9.928 22.293 0 16.569 13.432 30 30 30s30-13.431 30-30c0-8.918-3.895-16.922-10.072-22.417v-18.023c7.524-2.669 14.365-6.79 20.176-12.039l16.575 8.822c2.91 13.521 14.929 23.657 29.321 23.657 16.568 0 30-13.431 30-30s-13.432-30-30-30c-3.337 0-6.543.553-9.542 1.559l-17.267-9.191c.481-3.054.736-6.181.736-9.368 0-2.865-.215-5.679-.605-8.438l17.136-9.121c2.999 1.006 6.205 1.559 9.542 1.559zm-86.072 36c-11.028 0-20-8.972-20-20s8.972-20 20-20 20 8.972 20 20-8.972 20-20 20zm-141.342 66.96c-22.761-.839-46.06-21.874-64.136-58.027-3.165-6.329-6.11-12.988-8.837-19.933h48.561c-.16-2.98-.246-5.98-.246-9 0-10.593 1.009-20.953 2.915-31h-63.722c-5.861-24.212-9.494-50.558-10.685-78h117.564v-118h66.868c5.048 20.86 8.456 43.293 10.06 66.659 12.701-3.409 25.996-5.348 39.695-5.617-1.586-21.11-4.529-41.592-8.74-61.042h64.567c12.323 24.101 20.252 50.807 22.719 79.055 14.995 7.657 28.673 17.533 40.613 29.184.133-3.403.218-6.814.218-10.239 0-68.38-26.629-132.667-74.98-181.02-48.353-48.351-112.64-74.98-181.02-74.98s-132.667 26.629-181.02 74.98c-48.351 48.353-74.98 112.64-74.98 181.02s26.629 132.667 74.98 181.02c48.353 48.351 112.64 74.98 181.02 74.98 10.439 0 20.782-.628 30.988-1.852-12.622-11.001-23.565-23.878-32.402-38.188zm-213.666-235.96c2.57-27.858 10.454-54.199 22.624-78h64.582c-5.332 24.62-8.629 50.893-9.718 78zm195.08 0h-77.561c1.189-27.444 4.821-53.788 10.682-78h66.879zm186.027-118h-49.104c-4.522-13.421-9.73-26.089-15.597-37.822-3.687-7.373-7.585-14.256-11.665-20.669 29.661 13.588 55.729 33.704 76.366 58.491zm-100.477-19.933c3.164 6.329 6.109 12.989 8.835 19.933h-54.385v-72.892c16.469 8.341 32.393 26.645 45.55 52.959zm-85.55-52.959v72.892h-54.387c2.727-6.944 5.673-13.604 8.837-19.933 13.157-26.314 29.081-44.618 45.55-52.959zm-69.662 14.401c-4.08 6.413-7.979 13.296-11.665 20.669-5.866 11.733-11.077 24.4-15.6 37.822h-49.103c20.64-24.787 46.708-44.903 76.368-58.491zm-102.797 294.491c-12.168-23.801-20.047-50.143-22.617-78h77.482c1.091 27.105 4.388 53.38 9.72 78zm26.422 40h49.11c4.522 13.421 9.733 26.088 15.599 37.821 3.687 7.373 7.586 14.257 11.665 20.67-29.661-13.589-55.734-33.7-76.374-58.491z" fill="url(#SVGID_1_)"/></svg>