<svg id="Layer_1" enable-background="new 0 0 512.285 512.285" height="512" viewBox="0 0 512.285 512.285" width="512" xmlns="http://www.w3.org/2000/svg" xmlns:xlink="http://www.w3.org/1999/xlink"><linearGradient id="SVGID_1_" gradientUnits="userSpaceOnUse" x1="256.143" x2="256.143" y1="0" y2="512.285"><stop offset="0" stop-color="#2af598"/><stop offset="1" stop-color="#009efd"/></linearGradient><path d="m40.143 347.143h40v165h-40v-125h-40v-148c0-33.084 26.916-60 60-60h34.715l40 40h-74.715c-11.028 0-20 8.972-20 20zm145-77.716-40-40v117.715h-25v165h40v-125h36v125h40v-165h-51zm167 242.716h40v-35.715l-40-40zm-76 0h40v-111.716l-40-40zm236.142-28.143-28.285 28.285-484-484 28.285-28.285 46.011 46.011c7.832-3.756 16.595-5.869 25.846-5.869 33.084 0 60 26.916 60 60 0 9.251-2.113 18.014-5.869 25.846l21.094 21.094c8.778-5.046 18.941-7.941 29.774-7.941h101c26.334 0 48.743 17.061 56.798 40.704 3.019-.462 6.091-.704 9.202-.704h80c33.084 0 60 26.916 60 60v148h-40v56.715zm-140.142-264.857c-2.067 0-4.081.319-6 .92v117.795l66 66v-56.715h40v-108c0-11.028-8.972-20-20-20zm-164.716-40 118.715 118.715v-98.715c0-11.028-8.972-20-20-20zm-11.284-119c0-33.084 26.916-60 60-60s60 26.916 60 60-26.916 60-60 60-60-26.916-60-60zm40 0c0 11.028 8.972 20 20 20s20-8.972 20-20-8.972-20-20-20-20 8.971-20 20zm116 40c0-33.084 26.916-60 60-60s60 26.916 60 60-26.916 60-60 60-60-26.916-60-60zm40 0c0 11.028 8.972 20 20 20s20-8.972 20-20-8.972-20-20-20-20 8.971-20 20z" fill="url(#SVGID_1_)"/></svg>