<svg id="Layer_1" enable-background="new 0 0 512.028 512.028" height="512" viewBox="0 0 512.028 512.028" width="512" xmlns="http://www.w3.org/2000/svg" xmlns:xlink="http://www.w3.org/1999/xlink"><linearGradient id="SVGID_1_" gradientUnits="userSpaceOnUse" x1="256.014" x2="256.014" y1="0" y2="512.028"><stop offset="0" stop-color="#2af598"/><stop offset="1" stop-color="#009efd"/></linearGradient><path d="m511.998 95.771c-.469-36.149-7.291-60.317-20.855-73.883-14.17-14.169-38.323-21.318-73.841-21.855-28.306-.417-60.025 3.2-90.706 6.709-23.785 2.72-46.25 5.289-62.596 5.289v.034c-15.283.058-30.548 5.9-42.184 17.535l-191.246 191.247c-11.274 11.274-17.504 26.248-17.564 42.184h-.006c0 16.304-2.771 38.993-5.705 63.014-3.779 30.94-7.687 62.934-7.259 91.264.537 35.517 7.687 59.67 21.856 73.84 13.566 13.565 37.733 20.387 73.882 20.855 1.246.017 2.498.024 3.758.024 29.829 0 63.479-4.423 93.311-8.344 22.118-2.907 43.011-5.653 56.191-5.653v-.03c15.547-.32 30.119-6.508 41.15-17.538l191.248-191.248c10.802-10.802 16.962-25 17.514-40.185h.054c0-13.241 2.559-34.125 5.269-56.234 3.809-31.091 8.128-66.332 7.729-97.025zm-180.857-49.288c29.42-3.364 59.841-6.85 85.557-6.454 26.963.407 41.523 5.508 46.16 10.145.887.886 8.672 9.709 9.145 46.117.362 27.875-3.746 61.529-7.392 91.274l-140.303-140.303c2.265-.257 4.541-.517 6.833-.779zm-234.847 425.525c-36.408-.473-45.232-8.259-46.117-9.145-4.637-4.637-9.737-19.197-10.145-46.16-.387-25.593 3.352-56.204 6.968-85.809.321-2.629.639-5.239.954-7.834l140.816 140.815c-.382.05-.756.099-1.139.15-29.754 3.911-63.473 8.357-91.337 7.983zm165.606-19.83c-3.773 3.774-8.792 5.854-14.129 5.854-5.338 0-10.355-2.079-14.129-5.854l-43.216-43.216 69.724-69.796-28.299-28.27-69.709 69.782-28.259-28.259 69.724-69.796-28.299-28.27-69.709 69.782-46.745-46.745c-3.775-3.773-5.854-8.792-5.854-14.129 0-5.338 2.079-10.355 5.854-14.129l191.248-191.248c3.773-3.774 8.792-5.854 14.129-5.854s10.355 2.079 14.13 5.854l46.747 46.747-72.25 72.258 28.285 28.283 72.249-72.257 28.259 28.259-72.25 72.258 28.285 28.283 72.249-72.257 43.213 43.213c3.773 3.773 5.853 8.791 5.853 14.129 0 5.337-2.079 10.355-5.854 14.129z" fill="url(#SVGID_1_)"/></svg>