<svg id="Layer_1" enable-background="new 0 0 511.98 511.98" height="512" viewBox="0 0 511.98 511.98" width="512" xmlns="http://www.w3.org/2000/svg" xmlns:xlink="http://www.w3.org/1999/xlink"><linearGradient id="SVGID_1_" gradientUnits="userSpaceOnUse" x1="255.99" x2="255.99" y1="0" y2="511.981"><stop offset="0" stop-color="#2af598"/><stop offset="1" stop-color="#009efd"/></linearGradient><path d="m511.967 87.362c0-31.963-6.445-54.614-19.155-67.323-16.564-16.562-45.757-20.039-67.33-20.039-26.407 0-56.942 10.523-86.473 20.701-21.786 7.509-44.314 15.272-57.022 15.272v.047c-12.908-.25-25.964 1.45-38.734 5.221-17.265 5.099-35.002 13.647-49.253 20.516-8.172 3.939-17.284 8.331-22.424 10.049-13.08-.739-52.479-.832-75.604 22.313-23.331 23.349-24.321 64.393-24.063 76.6-1.428 4.611-6.213 14.904-9.808 22.635-6.729 14.471-15.102 32.48-20.49 50.062-3.958 12.916-5.796 26.127-5.635 39.195-.237 12.809-7.87 34.967-15.261 56.413-10.178 29.53-20.701 60.065-20.701 86.472 0 21.573 3.477 50.766 20.038 67.329 12.709 12.712 35.36 19.157 67.324 19.157 29.984 0 64.159-11.83 94.31-22.267 19.476-6.743 39.614-13.715 49.301-13.715v-.012c9.871-.002 19.748-1.139 29.401-3.418 77.321-18.25 128.518-39.504 152.165-63.17 23.669-23.687 44.02-73.969 60.486-149.452 2.132-9.773 3.092-19.61 2.955-29.342.167-9.819 7.046-29.696 13.706-48.935 10.437-30.15 22.267-64.324 22.267-94.309zm-463.63 377.179c-3.092-3.092-8.324-14.796-8.324-39.047 0-19.46 9.592-47.536 18.19-72.487 4.451 6.52 9.528 12.695 15.24 18.411l67.05 67.103c6.076 6.08 12.754 11.507 19.892 16.228-25.016 8.588-52.069 17.231-73.01 17.231-24.996 0-36.464-4.865-39.038-7.439zm385.622-213.118c-11.085 50.813-24.573 90.789-38.244 114.144l-110.383-110.384-28.285 28.283 110.097 110.099c-23.994 13.836-64.503 27.934-115.945 40.076-6.73 1.588-13.505 2.37-20.212 2.39v-.031c-.301 0-.616.02-.921.025-22.771-.169-44.691-9.177-61.277-25.777l-67.05-67.103c-16.477-16.49-25.457-38.414-25.757-60.969 0-.058.005-.118.005-.176h-.009c-.101-8.958 1.164-18.012 3.877-26.865 4.579-14.941 12.182-30.776 18.517-44.917 12.642-28.218 13.704-36.444 13.704-36.444s-.815-36.553 12.191-51.382c11.746-13.392 50.271-10.188 50.271-10.188s11.475-2.204 36.829-14.414c13.625-6.562 29.063-14.007 43.213-18.185 30.921-9.133 64.284-.646 87.062 22.151l68.599 68.651c16.351 16.364 25.362 38.042 25.747 60.563v.002c.115 6.782-.543 13.639-2.029 20.451zm4.576-109.288-68.599-68.651c-5.578-5.583-11.601-10.561-17.961-14.941.023-.008.045-.016.068-.023 25.185-8.682 53.731-18.52 73.439-18.52 24.251 0 35.955 5.232 39.047 8.324 2.573 2.573 7.438 14.042 7.438 39.038 0 21.229-8.883 48.74-17.586 74.042-4.594-6.839-9.881-13.299-15.846-19.269zm-172.628-24.167 11.324 38.363c-7.917 2.337-20.948 8.209-31.121 13.521-27.097 14.148-55.694 20.477-55.694 20.477-3.345 18.872-10.847 35.005-19.502 53.619-5.447 11.716-11.611 24.974-14.57 34.63l-38.244-11.721c3.768-12.295 10.55-26.883 16.534-39.754 8.253-17.748 14.208-30.557 16.543-44.611l.152-.813c3.894-18.638 17.225-30.188 35.875-31.264 13.371-3.02 25.864-9.041 41.528-16.591 12.26-5.908 26.142-12.599 37.175-15.856z" fill="url(#SVGID_1_)"/></svg>