<svg id="Layer_1" enable-background="new 0 0 512 512" height="512" viewBox="0 0 512 512" width="512" xmlns="http://www.w3.org/2000/svg" xmlns:xlink="http://www.w3.org/1999/xlink"><linearGradient id="SVGID_1_" gradientUnits="userSpaceOnUse" x1="256" x2="256" y1="0" y2="512"><stop offset="0" stop-color="#2af598"/><stop offset="1" stop-color="#009efd"/></linearGradient><path d="m452 283h-216.849c-4.777-28.339-29.475-50-59.151-50h-116c-7.011 0-13.74 1.22-20 3.44v-117.44h-40v393h40v-40h432v40h40v-169c0-33.084-26.916-60-60-60zm20 60v89h-236v-109h216c11.028 0 20 8.972 20 20zm-432-50c0-11.028 8.972-20 20-20h116c11.028 0 20 8.972 20 20v30h-156zm0 70h156v69h-156zm442-219c-3.337 0-6.543.553-9.542 1.559l-17.267-9.191c.481-3.053.736-6.181.736-9.368 0-2.865-.215-5.679-.605-8.438l17.136-9.121c2.999 1.006 6.205 1.559 9.542 1.559 16.568 0 30-13.431 30-30s-13.432-30-30-30c-14.392 0-26.411 10.136-29.322 23.657l-15.893 8.459c-5.956-5.549-13.034-9.901-20.857-12.676v-18.023c6.177-5.495 10.072-13.499 10.072-22.417 0-16.569-13.432-30-30-30s-30 13.431-30 30c0 8.849 3.833 16.801 9.928 22.292v18.148c-7.606 2.698-14.516 6.878-20.366 12.208l-15.278-8.158c-2.975-13.437-14.952-23.49-29.284-23.49-16.568 0-30 13.431-30 30s13.432 30 30 30c3.399 0 6.664-.574 9.71-1.616l15.91 8.496c-.456 2.974-.692 6.02-.692 9.12 0 3.42.303 6.768.855 10.033l-16.073 8.583c-3.046-1.042-6.311-1.616-9.71-1.616-16.568 0-30 13.431-30 30s13.432 30 30 30c14.332 0 26.309-10.053 29.283-23.49l15.99-8.538c5.698 5.03 12.351 8.997 19.655 11.587v18.148c-6.095 5.492-9.928 13.444-9.928 22.293 0 16.569 13.432 30 30 30s30-13.431 30-30c0-8.918-3.895-16.922-10.072-22.417v-18.023c7.524-2.668 14.365-6.79 20.176-12.039l16.575 8.822c2.91 13.521 14.929 23.657 29.321 23.657 16.568 0 30-13.431 30-30s-13.432-30-30-30zm-86.072 3c-11.028 0-20-8.972-20-20s8.972-20 20-20 20 8.972 20 20-8.972 20-20 20z" fill="url(#SVGID_1_)"/></svg>