<svg id="Layer_1" enable-background="new 0 0 512 512" height="512" viewBox="0 0 512 512" width="512" xmlns="http://www.w3.org/2000/svg" xmlns:xlink="http://www.w3.org/1999/xlink"><linearGradient id="SVGID_1_" gradientUnits="userSpaceOnUse" x1="256" x2="256" y1="0" y2="512"><stop offset="0" stop-color="#2af598"/><stop offset="1" stop-color="#009efd"/></linearGradient><path d="m113.007 393h99v119h-40v-79h-59c-33.084 0-60-26.916-60-60v-57h-1.559c-14.91 0-28.445-7.6-36.209-20.329-7.763-12.729-8.322-28.243-1.497-41.499l45.236-87.852c11.376-46.261 38.064-88.208 75.353-118.352 38.719-31.298 87.188-48.307 136.525-47.961 8.083.061 16.095.577 24.013 1.507l-22.532 38.527c-.594-.01-1.186-.031-1.782-.036-81.574-.6-154.425 57.372-173.215 137.872l-48.036 94.607c-.17.329-.62 1.204.085 2.359.706 1.157 1.689 1.157 2.059 1.157h41.559v97c0 11.028 8.972 20 20 20zm323.825-122c-2.688 7.832-5.957 15.568-9.814 23.186-20.941 41.357-32.011 88.38-32.011 135.985v81.829h40v-81.829c0-41.357 9.577-82.132 27.696-117.915 6.812-13.452 12.139-27.229 15.974-41.256zm-107.309-81 68.516-111h-57.461l45.516-79h-44l-66.087 113h55.571l-46.055 77zm122.022 41 51.461-84h-57.461l29-52h-44l-49.571 86h55.571l-29 50z" fill="url(#SVGID_1_)"/></svg>